<svg width="157" height="32" xmlns="http://www.w3.org/2000/svg">
 <!-- Generator: Sketch 3.0.4 (8053) - http://www.bohemiancoding.com/sketch -->
 <title>button</title>
 <desc>Created with Sketch.</desc>

 <g>
  <title>background</title>
  <rect fill="none" id="canvas_background" height="34" width="159" y="-1" x="-1"/>
 </g>
 <g>
  <title>Layer 1</title>
  <g fill-rule="evenodd" fill="none" id="Page-1">
   <g stroke="null" id="button">
    <rect x="0" y="0" stroke="null" rx="4" height="32" width="157.249998" fill="#099ad6" id="Background"/>
    <g stroke="null" fill="#FFFFFF" id="Icon"/>
    <path stroke="null" fill="#FFFFFF" id="Deploy" d="m34.183,21l2.535,0c3.055,0 4.849,-1.573 4.849,-4.836c0,-3.224 -1.755,-4.784 -4.849,-4.784l-2.535,0l0,9.62zm1.144,-1.027l0,-7.54l1.508,0c2.34,0 3.588,1.144 3.588,3.731c0,2.678 -1.235,3.809 -3.562,3.809l-1.534,0zm10.673,1.17c1.287,0 2.158,-0.546 2.795,-1.456l-0.65,-0.572c-0.52,0.715 -1.079,1.118 -2.067,1.118c-1.131,0 -2.028,-0.832 -2.067,-2.379l4.849,0l0,-0.234c0,-2.483 -1.235,-3.627 -2.86,-3.627c-1.443,0 -3.107,1.079 -3.107,3.575c0,2.392 1.482,3.575 3.107,3.575zm-1.963,-4.16c0.156,-1.417 1.027,-2.054 1.95,-2.054c1.131,0 1.716,0.832 1.807,2.054l-3.757,0zm6.422,6.617l1.118,0l0,-3.484c0.585,0.611 1.3,0.988 2.145,0.988c1.677,0 2.912,-1.157 2.912,-3.549c0,-2.392 -1.222,-3.562 -2.795,-3.562c-1.027,0 -1.742,0.52 -2.262,1.092l0,-0.949l-1.118,0l0,9.464zm3.107,-3.406c-0.728,0 -1.391,-0.364 -1.989,-1.04l0,-3.146c0.572,-0.624 1.209,-1.053 2.002,-1.053c1.105,0 1.937,0.858 1.937,2.613c0,1.82 -0.754,2.626 -1.95,2.626zm4.758,0.806l1.118,0l0,-9.62l-1.118,0l0,9.62zm5.98,0.143c1.677,0 3.185,-1.222 3.185,-3.575c0,-2.366 -1.508,-3.575 -3.185,-3.575c-1.69,0 -3.198,1.209 -3.198,3.575c0,2.353 1.521,3.575 3.198,3.575zm0,-0.949c-1.391,0 -2.067,-1.17 -2.067,-2.626c0,-1.547 0.754,-2.613 2.067,-2.613c1.365,0 2.054,1.183 2.054,2.613c0,1.573 -0.754,2.626 -2.054,2.626zm5.161,3.445c1.339,0 1.872,-0.65 2.34,-1.859l2.938,-7.644l-1.131,0l-2.015,5.551l-0.026,0l-2.015,-5.551l-1.183,0l2.652,6.903l-0.26,0.676c-0.273,0.676 -0.611,0.975 -1.313,0.975c-0.481,0 -0.819,-0.065 -1.014,-0.117l-0.26,0.897c0.299,0.091 0.676,0.169 1.287,0.169l0,0z"/>
   </g>
  </g>
  <!-- Generator: Sketch 3.0.4 (8053) - http://www.bohemiancoding.com/sketch -->
  <desc transform="matrix(0.05884280640696659,0,0,0.05884280640696659,0,0) ">Created with Sketch.</desc>

  <!-- Created with SVG-edit - http://svg-edit.googlecode.com/ -->
  <g stroke="null" id="svg_33">
   <g stroke="null" transform="matrix(0.06222771535934874,0,0,0.06685668499613918,-2859.7070864834827,-672.5860840965918) " id="svg_32">
    <title stroke="null" transform="translate(38.45659255981445,17.896984100341797) translate(-4.096046447753906,1.8189894035458565e-12) translate(-4.096046447753906,1.8189894035458565e-12) translate(-4.096046447753906,1.8189894035458565e-12) translate(-7.275957614183426e-12,4.17755651473999) translate(-7.275957614183426e-12,-4.17755651473999) translate(4.096046447753906,1.8189894035458565e-12) translate(4.096046447753906,1.8189894035458565e-12) translate(4.096046447753906,1.8189894035458565e-12) translate(4.096046447753906,1.8189894035458565e-12) translate(-7.275957614183426e-12,-4.17755651473999) translate(-7.275957614183426e-12,-4.17755651473999) translate(-7.275957614183426e-12,-4.17755651473999) translate(-7.275957614183426e-12,-4.17755651473999) translate(-623.79736328125,112.54851531982422) translate(46637.29296875,0) translate(0,10062.8125) ">Layer 1</title>
    <g stroke="null" id="svg_27">
     <g stroke="null" id="svg_28">
      <g stroke="null" id="svg_29">
       <path stroke="null" class="st0" d="m46209.948244,10207.647773c11.6,-12.1 27.8,-19.6 45.7,-19.6c23.8,0 44.5,13.3 55.5,32.9c9.6,-4.3 20.2,-6.7 31.4,-6.7c42.9,0 77.6,35.1 77.6,78.3s-34.7,78.3 -77.6,78.3c-5.2,0 -10.3,-0.5 -15.3,-1.5c-9.7,17.3 -28.3,29.1 -49.5,29.1c-8.9,0 -17.3,-2.1 -24.8,-5.7c-9.9,23.2 -32.8,39.4 -59.6,39.4c-27.9,0 -51.6,-17.6 -60.7,-42.4c-4,0.8 -8.1,1.3 -12.4,1.3c-33.2,0 -60.1,-27.2 -60.1,-60.7c0,-22.5 12.1,-42.1 30,-52.6c-3.7,-8.5 -5.8,-17.9 -5.8,-27.8c0,-38.6 31.3,-69.8 69.9,-69.8c22.8,0 42.9,10.8 55.7,27.5z" fill="#ffffff" stroke-width="0" id="svg_30"/>
      </g>
     </g>
    </g>
   </g>
  </g>
  <text font-weight="normal" xml:space="preserve" text-anchor="start" font-family="Arvo, sans-serif" font-size="13" id="svg_35" y="21.125002" x="78.625001" stroke-opacity="null" stroke-width="0" stroke="null" fill="#c2ecfc">to salesforce</text>
 </g>
</svg>